HIERARCHY
ROOT Hips
{
	OFFSET 0.000000 88.474243 0.000000
	CHANNELS 6 Xposition Yposition Zposition Zrotation Yrotation Xrotation 
	JOINT Hips_Spine
	{
		OFFSET 0.000000 0.000000 0.000000
		CHANNELS 3 Zrotation Yrotation Xrotation
		JOINT Spine
		{
			OFFSET 0.005100 8.711998 -0.691000
			CHANNELS 3 Zrotation Yrotation Xrotation
			JOINT Spine1
			{
				OFFSET -0.009200 8.660301 -1.275000
				CHANNELS 3 Zrotation Yrotation Xrotation
				JOINT Spine2
				{
					OFFSET 0.006300 9.852501 -1.857000
					CHANNELS 3 Zrotation Yrotation Xrotation
					JOINT Spine2_Neck
					{
						OFFSET 0.000000 0.000000 0.000000
						CHANNELS 3 Zrotation Yrotation Xrotation
						JOINT Neck
						{
							OFFSET 0.016300 11.420799 -0.263300
							CHANNELS 3 Zrotation Yrotation Xrotation
							End Site #name: Head
							{
								OFFSET -0.019200 9.262405 2.362500
							}
						}
					}
					JOINT Spine2_LeftShoulder
					{
						OFFSET 0.000000 0.000000 0.000000
						CHANNELS 3 Zrotation Yrotation Xrotation
						JOINT LeftShoulder
						{
							OFFSET 5.616900 6.732201 -0.345700
							CHANNELS 3 Zrotation Yrotation Xrotation
							JOINT LeftArm
							{
								OFFSET 10.664888 -0.183372 -2.440700
								CHANNELS 3 Zrotation Yrotation Xrotation
								JOINT LeftForeArm
								{
									OFFSET 27.459126 0.000000 0.000000
									CHANNELS 3 Zrotation Yrotation Xrotation
									End Site #name: LeftHand
									{
										OFFSET 21.306858 0.000000 0.000000
									}
								}
							}
						}
					}
					JOINT Spine2_RightShoulder
					{
						OFFSET 0.000000 0.000000 0.000000
						CHANNELS 3 Zrotation Yrotation Xrotation
						JOINT RightShoulder
						{
							OFFSET -5.580300 6.737503 -0.344400
							CHANNELS 3 Zrotation Yrotation Xrotation
							JOINT RightArm
							{
								OFFSET -10.679335 -0.188484 -2.383900
								CHANNELS 3 Zrotation Yrotation Xrotation
								JOINT RightForeArm
								{
									OFFSET -27.503529 0.000000 0.000000
									CHANNELS 3 Zrotation Yrotation Xrotation
									End Site #name: RightHand
									{
										OFFSET -21.306808 0.000000 0.000000
									}
								}
							}
						}
					}
				}
			}
		}
	}
	JOINT Hips_LeftUpLeg
	{
		OFFSET 0.000000 0.000000 0.000000
		CHANNELS 3 Zrotation Yrotation Xrotation
		JOINT LeftUpLeg
		{
			OFFSET 6.857700 -6.739601 0.312100
			CHANNELS 3 Zrotation Yrotation Xrotation
			JOINT LeftLeg
			{
				OFFSET -0.367590 -34.731552 -4.572400
				CHANNELS 3 Zrotation Yrotation Xrotation
				End Site #name: LeftFoot
				{
					OFFSET 0.367590 -34.656704 -6.067400
				}
			}
		}
	}
	JOINT Hips_RightUpLeg
	{
		OFFSET 0.000000 0.000000 0.000000
		CHANNELS 3 Zrotation Yrotation Xrotation
		JOINT RightUpLeg
		{
			OFFSET -6.876100 -6.733299 0.301000
			CHANNELS 3 Zrotation Yrotation Xrotation
			JOINT RightLeg
			{
				OFFSET 0.347353 -34.795158 -4.515900
				CHANNELS 3 Zrotation Yrotation Xrotation
				End Site #name: RightFoot
				{
					OFFSET -0.347353 -34.589367 -6.070300
				}
			}
		}
	}
}
MOTION
Frames: 10
Frame Time: 0.041667
0.039443 -0.035762 -0.076913 -179.515344 54.575360 -175.732273 -0.000000 -0.000000 0.000000 -3.693706 3.681671 -0.942573 0.864564 -0.197452 0.265510 0.000000 0.000000 0.000000 0.054018 -0.804408 -3.546592 -2.064451 -8.440132 -0.498853 0.449507 0.008510 -1.513181 -3.379754 -7.604908 1.585828 -79.246514 -7.903586 8.864381 0.966221 -15.017390 3.509502 0.140009 -0.329989 -2.312431 18.525209 12.692701 4.650181 51.409961 12.221984 -10.599944 -7.178319 68.294027 -0.812828 -0.000000 0.000000 0.000000 -8.118163 17.981254 -14.707868 -6.964554 -36.428377 0.168554 -0.000000 -0.000000 -0.000000 -9.246572 -30.164489 -7.359334 -14.285505 -9.764704 14.892147 
-0.187620 -0.203109 -0.118595 177.621828 59.177215 -177.094798 -0.000000 -0.000000 0.000000 -5.647608 2.142684 1.388105 0.994271 -0.471475 -1.187025 0.000000 0.000000 0.000000 0.969588 -0.544521 -3.686169 -0.733800 -17.391464 0.517809 0.517967 -0.229612 -2.349117 -2.151347 -9.400599 1.874980 -85.218642 -15.845559 4.462714 -0.983140 -10.057384 1.660651 0.800780 -0.658646 -1.380941 24.094689 15.394650 4.750188 50.511301 10.684082 -11.992226 -4.676735 51.444904 1.102379 -0.000000 0.000000 -0.000000 -6.584186 18.797190 -12.938253 -3.698180 -34.261191 -5.693420 -0.000000 -0.000000 -0.000000 -9.662034 -35.929785 -6.042542 -11.793043 -5.312291 14.050702 
-0.193386 -0.280947 -0.141348 176.631569 47.100250 -177.954042 -0.000000 -0.000000 0.000000 -6.417290 -0.383324 2.133793 1.182745 -0.492914 -1.985785 0.000000 0.000000 0.000000 1.381679 -0.728759 -4.009046 -2.019370 -27.344815 1.252678 0.555741 -0.210522 -2.987173 -0.806117 -8.694859 1.225741 -86.710372 -17.704106 -0.770574 -0.724605 -4.063126 2.287259 1.093300 -0.815484 -2.877455 25.798619 17.359672 5.705977 51.561509 10.708877 -6.756097 -4.188892 48.655092 3.322155 -0.000000 0.000000 -0.000000 -5.331224 19.672528 -11.674448 -2.766154 -33.622139 -7.701625 -0.000000 -0.000000 -0.000000 -10.210809 -41.100678 -3.729118 -11.858951 -5.165219 14.896003 
-0.045745 -0.329097 -0.159948 176.967232 33.261443 -178.328182 -0.000000 -0.000000 0.000000 -6.179566 -1.337773 2.764835 0.817449 -0.900009 -2.572351 0.000000 0.000000 0.000000 1.268293 -1.044760 -3.963514 -2.963565 -32.130374 1.674385 0.397735 -0.421201 -3.408022 -0.291895 -7.958218 0.886415 -87.720947 -19.062063 -2.412848 -0.309071 -1.184510 2.433867 0.837253 -1.274990 -3.023258 24.799188 16.953175 5.778185 51.866619 11.628674 -4.146646 -2.756664 49.776579 4.490289 -0.000000 0.000000 -0.000000 -4.716811 20.371225 -10.508515 -2.187137 -34.399641 -8.590161 -0.000000 -0.000000 -0.000000 -11.111263 -48.059628 -2.320159 -12.284775 -4.338503 15.984649 
0.112092 -0.356445 -0.228471 176.743956 20.548721 -178.742802 -0.000000 -0.000000 0.000000 -5.510067 -1.570347 2.884451 0.327879 -1.197509 -2.810717 0.000000 0.000000 0.000000 0.998280 -1.298792 -3.558285 -2.719700 -33.702666 1.468483 0.108284 -0.669093 -3.423484 -0.228538 -7.266665 0.728552 -88.300335 -19.872947 -2.145796 0.462938 0.355636 3.194173 0.428180 -1.537757 -2.680917 22.705385 15.937395 5.468621 52.315911 12.586895 -1.504262 -1.407970 51.352870 4.635206 -0.000000 0.000000 -0.000000 -4.374357 20.995758 -9.801905 -1.895574 -35.300832 -9.190047 -0.000000 -0.000000 -0.000000 -11.694958 -53.702694 -1.554331 -13.270295 -3.681008 17.225158 
0.278164 -0.361494 -0.337177 176.146514 11.247505 -178.985810 -0.000000 -0.000000 0.000000 -4.705442 -1.470628 2.786512 -0.072839 -1.392349 -2.562963 0.000000 0.000000 0.000000 0.724686 -1.393250 -2.767105 -1.913332 -33.154940 0.546264 -0.173479 -0.839686 -3.013002 -0.412858 -6.477384 0.643773 -88.548579 -19.847087 -1.585101 1.285779 0.556524 3.916203 0.036811 -1.668142 -1.937430 21.009507 15.097284 5.291481 52.922133 12.532979 0.946651 -1.351465 52.109867 4.010692 -0.000000 0.000000 -0.000000 -4.395830 21.192894 -9.566452 -1.764398 -35.997224 -9.676331 -0.000000 -0.000000 -0.000000 -11.740165 -57.793414 -1.504249 -14.322592 -3.497699 18.146546 
0.447953 -0.345319 -0.470003 175.373880 5.350080 -179.059958 -0.000000 -0.000000 0.000000 -4.276358 -0.620587 2.839214 -0.338472 -1.435638 -1.894665 0.000000 0.000000 0.000000 0.524454 -1.405337 -1.800561 -1.103159 -31.621223 -0.553995 -0.325146 -0.924673 -2.417591 -0.710577 -5.619740 0.578197 -88.403921 -19.575051 -0.787885 1.917170 -0.217126 4.489535 -0.233687 -1.752483 -1.129255 19.617253 14.241879 5.282981 53.526822 10.827551 3.120042 -1.120652 51.366071 3.929386 -0.000000 0.000000 -0.000000 -4.606863 20.865394 -9.703625 -1.698765 -36.480653 -10.168300 -0.000000 -0.000000 -0.000000 -11.533601 -60.355458 -1.888612 -15.312748 -3.757992 18.709130 
0.617401 -0.319548 -0.613967 174.691636 1.057163 -179.019700 -0.000000 -0.000000 0.000000 -4.141863 0.730065 2.903736 -0.479343 -1.383527 -1.047181 0.000000 0.000000 0.000000 0.354782 -1.366029 -0.802834 -0.584990 -29.957994 -1.463757 -0.423018 -0.939564 -1.734961 -0.965411 -4.887573 0.528682 -87.921639 -19.474800 0.128947 2.280932 -1.633478 4.681016 -0.367950 -1.765565 -0.731644 18.454061 13.652036 4.913416 54.217528 8.987124 5.644589 -0.518787 49.453443 4.454521 -0.000000 0.000000 -0.000000 -4.815426 20.361439 -9.875343 -1.633956 -36.799252 -10.651587 -0.000000 -0.000000 -0.000000 -11.299536 -61.411724 -2.323483 -15.965200 -4.045064 18.894016 
0.784015 -0.288248 -0.757324 174.202769 -2.888908 -178.958995 -0.000000 -0.000000 0.000000 -4.291021 1.872300 3.077618 -0.567883 -1.281663 -0.264445 0.000000 0.000000 0.000000 0.233536 -1.289905 -0.015573 -0.316809 -28.721613 -2.016788 -0.479357 -0.903175 -1.287266 -1.114425 -4.302613 0.523269 -87.181999 -19.712233 1.035114 2.547944 -3.527002 4.614756 -0.450934 -1.753091 -0.439090 17.580265 13.172302 4.539405 54.654574 7.487482 7.127744 0.462776 45.926458 5.239590 -0.000000 0.000000 -0.000000 -4.878524 19.820221 -9.678809 -1.543683 -37.052850 -11.132629 -0.000000 -0.000000 -0.000000 -11.082778 -61.656083 -2.731662 -16.201396 -4.376538 18.737095 
0.943583 -0.249681 -0.905610 173.932315 -6.699076 -178.920272 -0.000000 -0.000000 0.000000 -4.549028 2.629013 3.219696 -0.589353 -1.178258 0.259355 0.000000 0.000000 0.000000 0.151842 -1.229329 0.501244 -0.167987 -28.242151 -2.271583 -0.513995 -0.876589 -0.993842 -1.156940 -3.866544 0.541540 -86.497338 -20.268636 1.822456 2.799162 -5.632064 4.228949 -0.525549 -1.728942 -0.256470 16.895963 12.715682 4.270542 54.909334 6.722790 7.316080 1.396593 42.389578 5.936989 -0.000000 0.000000 -0.000000 -4.799075 19.327282 -9.142666 -1.511831 -37.298557 -11.531367 -0.000000 -0.000000 -0.000000 -11.062926 -61.405999 -2.908521 -16.185847 -4.920399 18.337122 
